<?xml version="1.0" encoding="utf-8"?>
<!-- Generator: Adobe Illustrator 22.1.0, SVG Export Plug-In . SVG Version: 6.00 Build 0)  -->
<svg version="1.1" id="Layer_1" xmlns="http://www.w3.org/2000/svg" xmlns:xlink="http://www.w3.org/1999/xlink" x="0px" y="0px"
	 viewBox="0 0 299.8 169.6" style="enable-background:new 0 0 299.8 169.6;" xml:space="preserve">
<style type="text/css">
	.st0{fill:#FFFFFF;stroke:#000000;stroke-width:0.7054;}
	.st1{fill:none;stroke:#000000;stroke-width:0.7054;}
	.st2{stroke:#000000;stroke-width:0.5643;}
	.st3{enable-background:new    ;}
	.st4{fill:#FFFFFF;}
</style>
<g id="svg3060" inkscape:version="0.48.0 r9654" sodipodi:docname="Nuovo documento 2" xmlns:cc="http://creativecommons.org/ns#" xmlns:dc="http://purl.org/dc/elements/1.1/" xmlns:inkscape="http://www.inkscape.org/namespaces/inkscape" xmlns:rdf="http://www.w3.org/1999/02/22-rdf-syntax-ns#" xmlns:sodipodi="http://sodipodi.sourceforge.net/DTD/sodipodi-0.dtd" xmlns:svg="http://www.w3.org/2000/svg">
	
		<path id="path2449-1" inkscape:connector-curvature="0" inkscape:export-filename="E:\WWW\GromaOnline\images\BDUS_grey.png" inkscape:export-xdpi="88" inkscape:export-ydpi="88" class="st0" d="
		M262.1,169.6l-147.5-44.5l27.3-90.4L152.3,0l147.5,44.5L262.1,169.6z"/>
	
		<path id="path2459-4" inkscape:connector-curvature="0" inkscape:export-filename="E:\WWW\GromaOnline\images\BDUS_grey.png" inkscape:export-xdpi="88" inkscape:export-ydpi="88" class="st0" d="
		M185.2,91.2c-2.9,9.7-13.2,15.2-22.9,12.3c-9.7-2.9-15.2-13.2-12.3-22.9c2.9-9.7,13.2-15.2,22.9-12.3
		C182.6,71.2,188.1,81.5,185.2,91.2z"/>
	
		<path id="path2473-0" inkscape:connector-curvature="0" inkscape:export-filename="E:\WWW\GromaOnline\images\BDUS_grey.png" inkscape:export-xdpi="88" inkscape:export-ydpi="88" class="st0" d="
		M221.2,87.8c2.9,9.7,13.2,15.2,22.9,12.3c9.7-2.9,15.2-13.2,12.3-22.9c-2.9-9.7-13.2-15.2-22.9-12.3
		C223.8,67.8,218.3,78.1,221.2,87.8z"/>
	
		<path id="path2455-9" inkscape:connector-curvature="0" inkscape:export-filename="E:\WWW\GromaOnline\images\BDUS_grey.png" inkscape:export-xdpi="88" inkscape:export-ydpi="88" class="st1" d="
		M170.5,114.7c0,0,1.6,0.8,3.7,1.9c2,1,5.8,2.5,8.3,3.2c2.6,0.7,7.6,1.3,11.3,1.4c3.6,0.1,9.7-0.2,13.4-0.6
		c3.7-0.4,9.3-1.4,12.4-2.3c3.1-0.8,8-2.6,10.9-4c2.9-1.4,6.2-3,7.4-3.7c1.2-0.7,2.2-1.2,2.2-1.2"/>
	
		<path id="path2453-4" inkscape:connector-curvature="0" inkscape:export-filename="E:\WWW\GromaOnline\images\BDUS_grey.png" inkscape:export-xdpi="88" inkscape:export-ydpi="88" class="st2" d="
		M282.9,108.1l0.6-17.4c0,0,0-1.9-0.1-4.3c0-2.4-0.7-6.9-1.4-10c-0.7-3.1-2.2-8.3-3.3-11.5c-1.1-3.2-3.2-7.9-4.6-10.4
		c-1.4-2.5-3.8-6.2-5.3-8.2c-1.5-2.1-4.5-5.3-6.8-7.1c-2.3-1.9-6.8-4.5-10-5.7c-3.2-1.3-9.5-3.2-14-4.2c-4.5-1-11.6-2.3-15.8-2.8
		c-4.2-0.5-11.8-1.2-16.8-1.5c-5-0.3-13.8-0.2-19.6,0.4c-5.7,0.5-13.8,1.6-18,2.4c-4.2,0.8-10.2,2.3-13.3,3.4
		c-3.2,1.1-7.4,3.1-9.5,4.6c-2.1,1.4-3.8,2.6-3.8,2.6l11.1-37.4L300,45.1l-17.1,54.2"/>
	
		<path id="path2481-8" inkscape:connector-curvature="0" inkscape:export-filename="E:\WWW\GromaOnline\images\BDUS_grey.png" inkscape:export-xdpi="88" inkscape:export-ydpi="88" d="
		M247.5,101.5c9.6-4.3,14.8-15,11.7-25.1c-2-6.7-7.3-11.6-13.6-13.7c16.6,2.5,31.7,15.8,37.4,34.8c2.4,8,2.9,16.1,1.7,23.7
		C279.4,106.6,263.5,98.3,247.5,101.5z"/>
	
		<path id="path2467-8" inkscape:connector-curvature="0" inkscape:export-filename="E:\WWW\GromaOnline\images\BDUS_grey.png" inkscape:export-xdpi="88" inkscape:export-ydpi="88" d="
		M147.2,79.9c2-6.7,7.3-11.6,13.6-13.7c-7.1,1.1-14,4.2-20,8.9v31.1c5.6-2,11.8-2.5,18.1-1.2C149.3,100.6,144.1,90,147.2,79.9"/>
	
		<path id="path2463-2" inkscape:connector-curvature="0" inkscape:export-filename="E:\WWW\GromaOnline\images\BDUS_grey.png" inkscape:export-xdpi="88" inkscape:export-ydpi="88" d="
		M180.6,96c-1.3,4.3-5.8,6.7-10,5.4c-4.3-1.3-6.7-5.8-5.4-10c1.3-4.3,5.8-6.7,10-5.4C179.4,87.2,181.9,91.7,180.6,96z"/>
	
		<path id="path2477-4" inkscape:connector-curvature="0" inkscape:export-filename="E:\WWW\GromaOnline\images\BDUS_grey.png" inkscape:export-xdpi="88" inkscape:export-ydpi="88" d="
		M225.8,92.6c1.3,4.3,5.8,6.7,10,5.4c4.3-1.3,6.7-5.8,5.4-10c-1.3-4.3-5.8-6.7-10-5.4C226.9,83.8,224.5,88.3,225.8,92.6z"/>
	
		<path id="path2565-5" inkscape:connector-curvature="0" inkscape:export-filename="E:\WWW\GromaOnline\images\BDUS_grey.png" inkscape:export-xdpi="88" inkscape:export-ydpi="88" d="
		M216.4,101.2c-0.2,0.3-0.7,0.5-1,0.6c-0.3,0.1-1,0.3-1.5,0.5c-0.5,0.2-1.3,0.7-1.6,1.2c-0.4,0.5-0.8,1.1-1,1.5
		c-0.2,0.4-0.4,0.3-0.5-0.1c0-0.5,0-1.3,0-1.9c0-0.6,0.4-1.5,0.7-2c0.3-0.5,1-1.2,1.4-1.4c0.5-0.2,1.2-0.4,1.7-0.4
		c0.5,0,1.2,0.1,1.5,0.3c0.3,0.2,0.6,0.6,0.7,0.8C216.8,100.5,216.6,100.9,216.4,101.2 M199.8,106c-0.3-0.4-0.8-1-1.2-1.4
		c-0.4-0.4-1.2-0.9-1.7-1c-0.5-0.1-1.2-0.3-1.6-0.3c-0.3,0-0.8-0.3-1-0.5c-0.3-0.2-0.5-0.6-0.5-0.8c0-0.2,0.3-0.6,0.6-0.9
		c0.3-0.3,1-0.5,1.4-0.5c0.5,0,1.3,0.1,1.8,0.3c0.5,0.2,1.2,0.7,1.6,1.2c0.4,0.5,0.8,1.4,0.9,1.9c0.1,0.6,0.2,1.4,0.2,1.9
		C200.2,106.3,200,106.4,199.8,106 M219.5,95.4c-0.9-1.3-4-2.4-7-2.3c-3,0.1-8.1,0.2-11.3,0.3c-3.2,0.1-7.7,0.7-9.9,1.5
		c-2.2,0.7-4.2,2.5-4.3,3.9c-0.1,1.5,0.2,3.6,0.7,4.8c0.5,1.2,1.8,2.2,3,2.3c1.2,0,3,0,4.1-0.1c1.1-0.1,3.2,0.5,4.6,1.4
		c1.4,0.9,3.6,2.4,4.8,3.4c1.2,1,3.3,0.5,4.6-1.1c1.3-1.6,3-3.5,3.8-4.1c0.7-0.6,2.2-1.2,3.3-1.2c1.1,0,2.6-0.4,3.4-0.9
		c0.8-0.5,1.6-1.9,1.7-3.2C221,98.8,220.4,96.7,219.5,95.4"/>
	<g>
		
			<path id="path2465-7" inkscape:connector-curvature="0" inkscape:export-filename="E:\WWW\GromaOnline\images\BDUS_grey.png" inkscape:export-xdpi="88" inkscape:export-ydpi="88" d="
			M121,126c-1.2-7.7-0.8-16,1.7-24.3c3.3-11.1,9.6-20.3,17.5-26.6V10.5H0v137.9h140.1V107C131.4,110.2,124.2,116.9,121,126"/>
		<g>
			<g class="st3">
				<path class="st4" d="M14.8,66.7h-0.8v-5H7.3v5H6.5V56.4h0.8v4.8h6.7v-4.8h0.8C14.8,56.4,14.8,66.7,14.8,66.7z"/>
				<path class="st4" d="M32.7,56.4V57H27v4.2h4.7v0.6H27v4.3h5.7v0.6h-6.5V56.4H32.7z"/>
				<path class="st4" d="M44.4,62v4.7h-0.8V56.4h2.7c1.2,0,2.2,0.2,2.8,0.7c0.6,0.5,0.9,1.1,0.9,2c0,0.4-0.1,0.8-0.2,1.1
					c-0.1,0.3-0.3,0.6-0.6,0.9c-0.3,0.2-0.6,0.5-1,0.6c-0.4,0.2-0.8,0.3-1.3,0.3c0.1,0.1,0.2,0.2,0.3,0.3l3.7,4.5h-0.7
					c-0.1,0-0.2,0-0.2,0c-0.1,0-0.1-0.1-0.2-0.1l-3.5-4.2c-0.1-0.1-0.2-0.2-0.3-0.2c-0.1,0-0.3-0.1-0.5-0.1H44.4z M44.4,61.5h1.9
					c0.5,0,0.9-0.1,1.3-0.2c0.4-0.1,0.7-0.3,1-0.5c0.3-0.2,0.5-0.5,0.6-0.7c0.1-0.3,0.2-0.6,0.2-1c0-0.7-0.3-1.3-0.8-1.6
					c-0.5-0.4-1.2-0.5-2.2-0.5h-2L44.4,61.5L44.4,61.5z"/>
				<path class="st4" d="M62.2,66.7h-0.8V56.4h0.8V66.7z"/>
				<path class="st4" d="M80.9,56.4V57h-3.8v9.8h-0.8V57h-3.8v-0.6C72.5,56.4,80.9,56.4,80.9,56.4z"/>
				<path class="st4" d="M99,66.7h-0.6c-0.1,0-0.1,0-0.2-0.1c0,0-0.1-0.1-0.1-0.1l-1.3-3h-5.3l-1.3,3c0,0.1-0.1,0.1-0.1,0.1
					c-0.1,0-0.1,0.1-0.2,0.1h-0.6l4.4-10.4h0.8L99,66.7z M91.8,63h4.8l-2.2-5.3c0-0.1-0.1-0.2-0.1-0.3c0-0.1-0.1-0.2-0.1-0.3
					c0,0.1-0.1,0.2-0.1,0.3c0,0.1-0.1,0.2-0.1,0.3L91.8,63z"/>
				<path class="st4" d="M113.5,66.2c0.4,0,0.7,0,1-0.1c0.3,0,0.6-0.1,0.8-0.2c0.3-0.1,0.5-0.2,0.7-0.3c0.2-0.1,0.5-0.2,0.7-0.4
					v-2.8h-2.1c-0.1,0-0.1,0-0.1-0.1c0,0-0.1-0.1-0.1-0.1V62h3v3.7c-0.3,0.2-0.5,0.3-0.8,0.5c-0.3,0.1-0.6,0.3-0.9,0.4
					c-0.3,0.1-0.7,0.2-1.1,0.2s-0.8,0.1-1.2,0.1c-0.8,0-1.5-0.1-2.1-0.4c-0.6-0.3-1.2-0.6-1.7-1.1c-0.5-0.5-0.8-1-1.1-1.7
					c-0.3-0.7-0.4-1.4-0.4-2.2c0-0.8,0.1-1.5,0.4-2.2c0.3-0.7,0.6-1.2,1.1-1.7c0.5-0.5,1-0.8,1.7-1.1c0.7-0.3,1.4-0.4,2.2-0.4
					c0.4,0,0.8,0,1.1,0.1c0.3,0.1,0.7,0.1,1,0.2c0.3,0.1,0.6,0.2,0.8,0.4s0.5,0.3,0.7,0.5l-0.2,0.3c0,0.1-0.1,0.1-0.2,0.1
					c0,0-0.1,0-0.1,0c-0.1,0-0.2-0.1-0.3-0.2c-0.1-0.1-0.3-0.2-0.6-0.3c-0.2-0.1-0.6-0.2-0.9-0.3c-0.4-0.1-0.8-0.1-1.3-0.1
					c-0.7,0-1.3,0.1-1.9,0.3c-0.6,0.2-1,0.5-1.4,0.9c-0.4,0.4-0.7,0.9-0.9,1.5c-0.2,0.6-0.3,1.2-0.3,1.9c0,0.7,0.1,1.4,0.3,2
					c0.2,0.6,0.5,1.1,0.9,1.5c0.4,0.4,0.9,0.7,1.4,0.9C112.3,66.1,112.9,66.2,113.5,66.2z"/>
				<path class="st4" d="M134.9,56.4V57h-5.7v4.2h4.7v0.6h-4.7v4.3h5.7v0.6h-6.5V56.4H134.9z"/>
			</g>
			<g class="st3">
				<path class="st4" d="M14.1,47.4c0,0,0.1,0,0.1,0.1l0.3,0.3c-0.2,0.2-0.5,0.4-0.7,0.6c-0.3,0.2-0.5,0.3-0.8,0.5
					c-0.3,0.1-0.6,0.2-1,0.3c-0.4,0.1-0.8,0.1-1.2,0.1c-0.7,0-1.4-0.1-2-0.4s-1.1-0.6-1.6-1.1c-0.4-0.5-0.8-1-1-1.7
					c-0.2-0.7-0.4-1.4-0.4-2.2c0-0.8,0.1-1.5,0.4-2.2c0.2-0.7,0.6-1.2,1.1-1.7c0.5-0.5,1-0.8,1.6-1.1s1.3-0.4,2.1-0.4
					c0.4,0,0.7,0,1,0.1c0.3,0.1,0.6,0.1,0.9,0.2c0.3,0.1,0.5,0.2,0.8,0.4s0.5,0.3,0.7,0.5l-0.2,0.3c0,0.1-0.1,0.1-0.2,0.1
					c0,0-0.1,0-0.2-0.1c-0.1-0.1-0.2-0.1-0.3-0.2c-0.1-0.1-0.2-0.2-0.4-0.2c-0.2-0.1-0.3-0.2-0.5-0.2c-0.2-0.1-0.4-0.1-0.7-0.2
					c-0.3-0.1-0.6-0.1-0.9-0.1c-0.6,0-1.2,0.1-1.8,0.3c-0.5,0.2-1,0.5-1.4,0.9C7.5,40.9,7.2,41.4,7,42c-0.2,0.6-0.3,1.2-0.3,1.9
					c0,0.7,0.1,1.4,0.3,2c0.2,0.6,0.5,1.1,0.9,1.5c0.4,0.4,0.8,0.7,1.3,0.9c0.5,0.2,1.1,0.3,1.7,0.3c0.4,0,0.7,0,1-0.1
					c0.3,0,0.6-0.1,0.8-0.2c0.2-0.1,0.5-0.2,0.7-0.4c0.2-0.1,0.4-0.3,0.6-0.5C14,47.4,14,47.4,14.1,47.4
					C14.1,47.4,14.1,47.4,14.1,47.4z"/>
				<path class="st4" d="M28.8,48.6c0.5,0,1-0.1,1.4-0.3c0.4-0.2,0.7-0.4,1-0.7c0.3-0.3,0.5-0.7,0.6-1.1c0.1-0.4,0.2-0.9,0.2-1.4
					v-6.4h0.8v6.4c0,0.6-0.1,1.1-0.3,1.6c-0.2,0.5-0.4,0.9-0.8,1.3c-0.3,0.4-0.8,0.7-1.3,0.9c-0.5,0.2-1,0.3-1.7,0.3
					s-1.2-0.1-1.7-0.3c-0.5-0.2-0.9-0.5-1.3-0.9c-0.3-0.4-0.6-0.8-0.8-1.3c-0.2-0.5-0.3-1-0.3-1.6v-6.4h0.8v6.4
					c0,0.5,0.1,0.9,0.2,1.4c0.1,0.4,0.4,0.8,0.6,1.1c0.3,0.3,0.6,0.6,1,0.7C27.9,48.5,28.3,48.6,28.8,48.6z"/>
				<path class="st4" d="M44.6,48.5h5v0.6h-5.7V38.7h0.8C44.6,38.7,44.6,48.5,44.6,48.5z"/>
				<path class="st4" d="M66.3,38.7v0.6h-3.7v9.8h-0.8v-9.8h-3.7v-0.6H66.3z"/>
				<path class="st4" d="M79.9,48.6c0.5,0,1-0.1,1.4-0.3s0.7-0.4,1-0.7c0.3-0.3,0.5-0.7,0.6-1.1c0.1-0.4,0.2-0.9,0.2-1.4v-6.4h0.8
					v6.4c0,0.6-0.1,1.1-0.3,1.6c-0.2,0.5-0.4,0.9-0.8,1.3c-0.3,0.4-0.8,0.7-1.3,0.9c-0.5,0.2-1,0.3-1.7,0.3s-1.2-0.1-1.7-0.3
					c-0.5-0.2-0.9-0.5-1.3-0.9c-0.3-0.4-0.6-0.8-0.8-1.3c-0.2-0.5-0.3-1-0.3-1.6v-6.4h0.8v6.4c0,0.5,0.1,0.9,0.2,1.4
					c0.1,0.4,0.4,0.8,0.6,1.1c0.3,0.3,0.6,0.6,1,0.7C79,48.5,79.4,48.6,79.9,48.6z"/>
				<path class="st4" d="M95.9,44.4v4.7h-0.8V38.7h2.7c1.2,0,2.1,0.2,2.7,0.7c0.6,0.5,0.9,1.1,0.9,2c0,0.4-0.1,0.8-0.2,1.1
					c-0.1,0.3-0.3,0.6-0.6,0.9c-0.3,0.2-0.6,0.5-0.9,0.6s-0.8,0.3-1.2,0.3c0.1,0.1,0.2,0.2,0.3,0.3l3.6,4.5h-0.7c-0.1,0-0.1,0-0.2,0
					c-0.1,0-0.1-0.1-0.2-0.1L98,44.7c-0.1-0.1-0.2-0.2-0.3-0.2c-0.1,0-0.2-0.1-0.5-0.1C97.3,44.4,95.9,44.4,95.9,44.4z M95.9,43.8
					h1.8c0.5,0,0.9-0.1,1.3-0.2c0.4-0.1,0.7-0.3,0.9-0.5c0.3-0.2,0.5-0.5,0.6-0.7c0.1-0.3,0.2-0.6,0.2-1c0-0.7-0.2-1.3-0.7-1.6
					c-0.5-0.4-1.2-0.5-2.1-0.5h-1.9L95.9,43.8L95.9,43.8z"/>
				<path class="st4" d="M120.2,49.1h-0.6c-0.1,0-0.1,0-0.2-0.1c0,0-0.1-0.1-0.1-0.1l-1.2-3h-5.2l-1.2,3c0,0.1-0.1,0.1-0.1,0.1
					c0,0-0.1,0.1-0.2,0.1h-0.6l4.3-10.4h0.8L120.2,49.1z M113.2,45.3h4.7l-2.1-5.3c0-0.1-0.1-0.2-0.1-0.3c0-0.1-0.1-0.2-0.1-0.3
					c0,0.1-0.1,0.2-0.1,0.3c0,0.1-0.1,0.2-0.1,0.3L113.2,45.3z"/>
				<path class="st4" d="M130.6,48.5h5v0.6h-5.7V38.7h0.8L130.6,48.5L130.6,48.5z"/>
			</g>
			<g class="st3">
				<path class="st4" d="M13.7,29.7c0,0,0.1,0,0.1,0.1l0.3,0.3c-0.2,0.2-0.5,0.4-0.7,0.6c-0.3,0.2-0.5,0.3-0.8,0.5
					c-0.3,0.1-0.6,0.2-1,0.3c-0.4,0.1-0.8,0.1-1.2,0.1c-0.7,0-1.4-0.1-2-0.4c-0.6-0.3-1.1-0.6-1.5-1.1c-0.4-0.5-0.8-1-1-1.7
					c-0.2-0.7-0.4-1.4-0.4-2.2c0-0.8,0.1-1.5,0.4-2.2c0.2-0.7,0.6-1.2,1-1.7c0.4-0.5,1-0.8,1.6-1.1c0.6-0.3,1.3-0.4,2.1-0.4
					c0.4,0,0.7,0,1,0.1c0.3,0.1,0.6,0.1,0.9,0.2c0.3,0.1,0.5,0.2,0.8,0.4c0.2,0.2,0.5,0.3,0.7,0.5l-0.2,0.3c0,0.1-0.1,0.1-0.2,0.1
					c0,0-0.1,0-0.2-0.1c-0.1-0.1-0.2-0.1-0.3-0.2s-0.2-0.2-0.4-0.2c-0.1-0.1-0.3-0.2-0.5-0.2c-0.2-0.1-0.4-0.1-0.7-0.2
					c-0.3-0.1-0.6-0.1-0.9-0.1c-0.6,0-1.2,0.1-1.7,0.3c-0.5,0.2-1,0.5-1.4,0.9c-0.4,0.4-0.7,0.9-0.9,1.5c-0.2,0.6-0.3,1.2-0.3,1.9
					c0,0.7,0.1,1.4,0.3,2c0.2,0.6,0.5,1.1,0.9,1.5c0.4,0.4,0.8,0.7,1.3,0.9c0.5,0.2,1.1,0.3,1.6,0.3c0.4,0,0.7,0,1-0.1
					c0.3,0,0.6-0.1,0.8-0.2c0.2-0.1,0.5-0.2,0.7-0.4c0.2-0.1,0.4-0.3,0.6-0.5C13.6,29.7,13.6,29.7,13.7,29.7
					C13.6,29.7,13.6,29.7,13.7,29.7z"/>
				<path class="st4" d="M25.7,26.2c0,0.8-0.1,1.5-0.4,2.2c-0.2,0.7-0.6,1.2-1,1.7c-0.4,0.5-1,0.8-1.6,1.1s-1.3,0.4-2,0.4
					c-0.7,0-1.4-0.1-2-0.4c-0.6-0.3-1.1-0.6-1.6-1.1c-0.4-0.5-0.8-1-1-1.7c-0.2-0.7-0.4-1.4-0.4-2.2c0-0.8,0.1-1.5,0.4-2.2
					c0.2-0.7,0.6-1.2,1-1.7c0.4-0.5,1-0.8,1.6-1.1s1.3-0.4,2-0.4c0.7,0,1.4,0.1,2,0.4c0.6,0.3,1.1,0.6,1.6,1.1c0.4,0.5,0.8,1,1,1.7
					C25.6,24.7,25.7,25.4,25.7,26.2z M24.9,26.2c0-0.7-0.1-1.4-0.3-2c-0.2-0.6-0.5-1.1-0.8-1.5c-0.4-0.4-0.8-0.7-1.3-0.9
					c-0.5-0.2-1.1-0.3-1.7-0.3c-0.6,0-1.2,0.1-1.7,0.3c-0.5,0.2-1,0.5-1.3,0.9c-0.4,0.4-0.7,0.9-0.9,1.5c-0.2,0.6-0.3,1.2-0.3,2
					c0,0.7,0.1,1.4,0.3,2c0.2,0.6,0.5,1.1,0.9,1.5c0.4,0.4,0.8,0.7,1.3,0.9c0.5,0.2,1.1,0.3,1.7,0.3c0.6,0,1.2-0.1,1.7-0.3
					c0.5-0.2,1-0.5,1.3-0.9c0.4-0.4,0.6-0.9,0.8-1.5S24.9,26.9,24.9,26.2z"/>
				<path class="st4" d="M33.4,28.8c0-0.1,0.1-0.2,0.1-0.2c0-0.1,0.1-0.1,0.1-0.2l4.1-7.2c0-0.1,0.1-0.1,0.1-0.1s0.1,0,0.2,0h0.5
					v10.4h-0.7v-8.9c0-0.1,0-0.3,0-0.4l-4.1,7.3c-0.1,0.1-0.2,0.2-0.3,0.2h-0.1c-0.1,0-0.2-0.1-0.3-0.2l-4.2-7.3c0,0.1,0,0.3,0,0.4
					v8.9h-0.7V21h0.5c0.1,0,0.1,0,0.2,0c0,0,0.1,0.1,0.1,0.1l4.2,7.2C33.2,28.5,33.3,28.7,33.4,28.8z"/>
				<path class="st4" d="M46.7,28.8c0-0.1,0.1-0.2,0.1-0.2c0-0.1,0.1-0.1,0.1-0.2l4.1-7.2c0-0.1,0.1-0.1,0.1-0.1c0,0,0.1,0,0.2,0
					h0.5v10.4h-0.7v-8.9c0-0.1,0-0.3,0-0.4l-4.1,7.3c-0.1,0.1-0.2,0.2-0.3,0.2h-0.1c-0.1,0-0.2-0.1-0.3-0.2l-4.2-7.3
					c0,0.1,0,0.3,0,0.4v8.9h-0.7V21H42c0.1,0,0.1,0,0.2,0c0,0,0.1,0.1,0.1,0.1l4.2,7.2C46.6,28.5,46.7,28.7,46.7,28.8z"/>
				<path class="st4" d="M58.7,30.9c0.5,0,0.9-0.1,1.3-0.3c0.4-0.2,0.7-0.4,1-0.7c0.3-0.3,0.5-0.7,0.6-1.1c0.1-0.4,0.2-0.9,0.2-1.4
					V21h0.7v6.4c0,0.6-0.1,1.1-0.3,1.6s-0.4,0.9-0.8,1.3c-0.3,0.4-0.8,0.7-1.2,0.9c-0.5,0.2-1,0.3-1.6,0.3c-0.6,0-1.2-0.1-1.6-0.3
					c-0.5-0.2-0.9-0.5-1.2-0.9C55.5,30,55.2,29.5,55,29s-0.3-1-0.3-1.6V21h0.8v6.4c0,0.5,0.1,0.9,0.2,1.4s0.4,0.8,0.6,1.1
					c0.3,0.3,0.6,0.6,1,0.7C57.8,30.8,58.2,30.9,58.7,30.9z"/>
				<path class="st4" d="M66.2,21c0,0,0.1,0.1,0.1,0.1l6.7,9c0-0.1,0-0.3,0-0.4V21h0.7v10.4h-0.4c-0.1,0-0.2,0-0.3-0.1l-6.8-9
					c0,0.1,0,0.3,0,0.4v8.7h-0.7V21H66C66.1,21,66.1,21,66.2,21z"/>
				<path class="st4" d="M77.8,31.4H77V21h0.8V31.4z"/>
				<path class="st4" d="M88.7,29.7c0,0,0.1,0,0.1,0.1l0.3,0.3c-0.2,0.2-0.5,0.4-0.7,0.6c-0.3,0.2-0.5,0.3-0.8,0.5
					c-0.3,0.1-0.6,0.2-1,0.3c-0.4,0.1-0.8,0.1-1.2,0.1c-0.7,0-1.4-0.1-2-0.4c-0.6-0.3-1.1-0.6-1.5-1.1c-0.4-0.5-0.8-1-1-1.7
					c-0.2-0.7-0.4-1.4-0.4-2.2c0-0.8,0.1-1.5,0.4-2.2c0.2-0.7,0.6-1.2,1-1.7c0.4-0.5,1-0.8,1.6-1.1c0.6-0.3,1.3-0.4,2.1-0.4
					c0.4,0,0.7,0,1,0.1c0.3,0.1,0.6,0.1,0.9,0.2c0.3,0.1,0.5,0.2,0.8,0.4c0.2,0.2,0.5,0.3,0.7,0.5l-0.2,0.3c0,0.1-0.1,0.1-0.2,0.1
					c0,0-0.1,0-0.2-0.1c-0.1-0.1-0.2-0.1-0.3-0.2c-0.1-0.1-0.2-0.2-0.4-0.2c-0.1-0.1-0.3-0.2-0.5-0.2c-0.2-0.1-0.4-0.1-0.7-0.2
					c-0.3-0.1-0.6-0.1-0.9-0.1c-0.6,0-1.2,0.1-1.7,0.3c-0.5,0.2-1,0.5-1.4,0.9c-0.4,0.4-0.7,0.9-0.9,1.5c-0.2,0.6-0.3,1.2-0.3,1.9
					c0,0.7,0.1,1.4,0.3,2c0.2,0.6,0.5,1.1,0.9,1.5c0.4,0.4,0.8,0.7,1.3,0.9s1.1,0.3,1.6,0.3c0.4,0,0.7,0,1-0.1
					c0.3,0,0.6-0.1,0.8-0.2c0.2-0.1,0.5-0.2,0.7-0.4c0.2-0.1,0.4-0.3,0.6-0.5C88.6,29.7,88.6,29.7,88.7,29.7
					C88.6,29.7,88.7,29.7,88.7,29.7z"/>
				<path class="st4" d="M99.3,31.4h-0.6c-0.1,0-0.1,0-0.2-0.1c0,0-0.1-0.1-0.1-0.1l-1.2-3h-5.1l-1.2,3c0,0.1-0.1,0.1-0.1,0.1
					c0,0-0.1,0.1-0.2,0.1H90L94.3,21H95L99.3,31.4z M92.3,27.6H97l-2.1-5.3c0-0.1-0.1-0.2-0.1-0.3c0-0.1-0.1-0.2-0.1-0.3
					c0,0.1-0.1,0.2-0.1,0.3c0,0.1-0.1,0.2-0.1,0.3L92.3,27.6z"/>
				<path class="st4" d="M106.9,21v0.6h-3.6v9.8h-0.7v-9.8h-3.7V21H106.9z"/>
				<path class="st4" d="M109.7,31.4h-0.8V21h0.8V31.4z"/>
				<path class="st4" d="M113.6,21c0,0,0.1,0.1,0.1,0.1l6.7,9c0-0.1,0-0.3,0-0.4V21h0.7v10.4h-0.4c-0.1,0-0.2,0-0.3-0.1l-6.8-9
					c0,0.1,0,0.3,0,0.4v8.7h-0.7V21h0.4C113.5,21,113.6,21,113.6,21z"/>
				<path class="st4" d="M128.6,30.9c0.4,0,0.7,0,1-0.1c0.3,0,0.6-0.1,0.8-0.2s0.5-0.2,0.7-0.3c0.2-0.1,0.5-0.2,0.7-0.4v-2.8h-2
					c-0.1,0-0.1,0-0.1-0.1c0,0-0.1-0.1-0.1-0.1v-0.4h2.9v3.7c-0.3,0.2-0.5,0.3-0.8,0.5c-0.3,0.1-0.6,0.3-0.9,0.4
					c-0.3,0.1-0.7,0.2-1,0.2c-0.4,0.1-0.8,0.1-1.2,0.1c-0.7,0-1.4-0.1-2.1-0.4c-0.6-0.3-1.2-0.6-1.6-1.1c-0.4-0.5-0.8-1-1-1.7
					c-0.2-0.7-0.4-1.4-0.4-2.2c0-0.8,0.1-1.5,0.4-2.2c0.2-0.7,0.6-1.2,1-1.7c0.5-0.5,1-0.8,1.6-1.1c0.6-0.3,1.4-0.4,2.2-0.4
					c0.4,0,0.8,0,1.1,0.1c0.3,0.1,0.6,0.1,0.9,0.2c0.3,0.1,0.6,0.2,0.8,0.4c0.2,0.2,0.5,0.3,0.7,0.5l-0.2,0.3c0,0.1-0.1,0.1-0.2,0.1
					c0,0-0.1,0-0.1,0c-0.1,0-0.2-0.1-0.3-0.2c-0.1-0.1-0.3-0.2-0.6-0.3c-0.2-0.1-0.5-0.2-0.9-0.3c-0.4-0.1-0.8-0.1-1.3-0.1
					c-0.7,0-1.3,0.1-1.8,0.3c-0.5,0.2-1,0.5-1.4,0.9c-0.4,0.4-0.7,0.9-0.9,1.5c-0.2,0.6-0.3,1.2-0.3,1.9c0,0.7,0.1,1.4,0.3,2
					c0.2,0.6,0.5,1.1,0.9,1.5c0.4,0.4,0.8,0.7,1.4,0.9C127.4,30.8,128,30.9,128.6,30.9z"/>
			</g>
			<g class="st3">
				<path class="st4" d="M22.4,138.3v-8.5H23l0,3.7c0.3-0.3,0.6-0.6,1-0.8c0.4-0.2,0.8-0.3,1.2-0.3c0.8,0,1.4,0.2,1.8,0.7
					c0.4,0.5,0.7,1.2,0.7,2.2c0,0.4-0.1,0.8-0.2,1.2c-0.1,0.4-0.3,0.7-0.5,1c-0.2,0.3-0.5,0.5-0.9,0.6c-0.3,0.2-0.7,0.2-1.2,0.2
					c-0.4,0-0.8-0.1-1.1-0.2c-0.3-0.2-0.6-0.4-0.8-0.7l0,0.7c0,0.1-0.1,0.1-0.2,0.1L22.4,138.3L22.4,138.3z M25,132.8
					c-0.4,0-0.8,0.1-1.1,0.3c-0.3,0.2-0.6,0.5-0.9,0.8v3.1c0.2,0.3,0.5,0.6,0.8,0.7c0.3,0.1,0.6,0.2,1,0.2c0.4,0,0.7-0.1,1-0.2
					c0.3-0.1,0.5-0.3,0.7-0.5c0.2-0.2,0.3-0.5,0.4-0.8c0.1-0.3,0.1-0.7,0.1-1.1c0-0.9-0.2-1.5-0.5-1.9C26.2,133,25.7,132.8,25,132.8
					z"/>
				<path class="st4" d="M31.7,138.3v-5.8H32c0.1,0,0.1,0,0.2,0c0,0,0,0.1,0.1,0.1l0.1,1.2c0.2-0.5,0.5-0.8,0.8-1.1
					c0.3-0.3,0.8-0.4,1.3-0.4c0.2,0,0.4,0,0.5,0.1c0.2,0,0.3,0.1,0.5,0.2l-0.1,0.4c0,0.1-0.1,0.1-0.1,0.1c0,0-0.1,0-0.1,0
					c0,0-0.1,0-0.2-0.1s-0.2,0-0.3-0.1c-0.1,0-0.2,0-0.3,0c-0.5,0-0.9,0.1-1.2,0.4c-0.3,0.3-0.6,0.7-0.7,1.2v3.8L31.7,138.3
					L31.7,138.3z"/>
				<path class="st4" d="M43.2,138.3c-0.1,0-0.2-0.1-0.2-0.2l-0.1-0.7c-0.2,0.2-0.3,0.3-0.5,0.4c-0.2,0.1-0.4,0.2-0.5,0.3
					c-0.2,0.1-0.4,0.2-0.6,0.2c-0.2,0-0.5,0.1-0.7,0.1c-0.2,0-0.4,0-0.6-0.1c-0.2-0.1-0.4-0.1-0.5-0.3c-0.2-0.1-0.3-0.3-0.4-0.5
					c-0.1-0.2-0.1-0.4-0.1-0.7c0-0.2,0.1-0.5,0.2-0.7c0.2-0.2,0.4-0.4,0.7-0.6c0.3-0.2,0.7-0.3,1.3-0.4c0.5-0.1,1.1-0.1,1.8-0.2
					v-0.6c0-0.5-0.1-1-0.4-1.2c-0.3-0.3-0.6-0.4-1.1-0.4c-0.3,0-0.6,0-0.8,0.1c-0.2,0.1-0.4,0.2-0.5,0.3c-0.1,0.1-0.3,0.2-0.4,0.3
					c-0.1,0.1-0.2,0.1-0.2,0.1c-0.1,0-0.1,0-0.2-0.1l-0.1-0.2c0.3-0.3,0.7-0.5,1-0.7c0.4-0.2,0.8-0.2,1.2-0.2c0.3,0,0.6,0,0.9,0.2
					c0.3,0.1,0.5,0.2,0.6,0.4c0.2,0.2,0.3,0.4,0.4,0.7c0.1,0.3,0.1,0.6,0.1,0.9v3.8L43.2,138.3L43.2,138.3z M40.7,138
					c0.2,0,0.5,0,0.7-0.1c0.2,0,0.4-0.1,0.6-0.2c0.2-0.1,0.3-0.2,0.5-0.3c0.2-0.1,0.3-0.3,0.5-0.4v-1.5c-0.6,0-1.1,0.1-1.6,0.1
					c-0.4,0.1-0.8,0.2-1.1,0.3c-0.3,0.1-0.5,0.3-0.6,0.4c-0.1,0.2-0.2,0.3-0.2,0.6c0,0.2,0,0.4,0.1,0.5c0.1,0.1,0.2,0.3,0.3,0.4
					c0.1,0.1,0.2,0.2,0.4,0.2C40.4,137.9,40.5,138,40.7,138z"/>
				<path class="st4" d="M52.3,138.3c-0.1,0-0.2-0.1-0.2-0.2l-0.1-0.9c-0.3,0.4-0.6,0.6-1,0.8c-0.4,0.2-0.8,0.3-1.3,0.3
					c-0.8,0-1.4-0.2-1.8-0.7c-0.4-0.5-0.7-1.2-0.7-2.2c0-0.4,0.1-0.8,0.2-1.2c0.1-0.4,0.3-0.7,0.5-1c0.2-0.3,0.5-0.5,0.9-0.6
					c0.3-0.2,0.7-0.2,1.2-0.2c0.4,0,0.8,0.1,1.1,0.2c0.3,0.1,0.6,0.4,0.8,0.6v-3.5h0.6v8.5L52.3,138.3L52.3,138.3z M50,137.9
					c0.4,0,0.8-0.1,1.1-0.3c0.3-0.2,0.6-0.5,0.9-0.8v-3.1c-0.2-0.3-0.5-0.6-0.8-0.7c-0.3-0.1-0.6-0.2-1-0.2c-0.4,0-0.7,0.1-1,0.2
					c-0.3,0.1-0.5,0.3-0.7,0.5c-0.2,0.2-0.3,0.5-0.4,0.8S48,135,48,135.4c0,0.9,0.2,1.5,0.5,1.9C48.9,137.7,49.4,137.9,50,137.9z"/>
				<path class="st4" d="M58.6,140.2c0,0.1-0.1,0.1-0.1,0.1c0,0-0.1,0.1-0.2,0.1h-0.4l1.1-2.3l-2.7-5.6h0.5c0.1,0,0.1,0,0.1,0
					c0,0,0.1,0.1,0.1,0.1l2.1,4.5c0,0.1,0,0.1,0.1,0.2c0,0.1,0,0.1,0.1,0.2c0-0.1,0-0.1,0.1-0.2c0-0.1,0-0.1,0.1-0.2l2.1-4.5
					c0,0,0.1-0.1,0.1-0.1c0,0,0.1,0,0.1,0h0.5L58.6,140.2z"/>
				<path class="st4" d="M65.9,140.3v-7.9h0.3c0.1,0,0.1,0,0.1,0c0,0,0.1,0.1,0.1,0.1l0.1,0.9c0.3-0.4,0.6-0.6,1-0.8
					c0.4-0.2,0.8-0.3,1.3-0.3c0.8,0,1.4,0.2,1.8,0.7c0.4,0.5,0.6,1.2,0.6,2.2c0,0.4-0.1,0.8-0.2,1.2c-0.1,0.4-0.3,0.7-0.5,1
					c-0.2,0.3-0.5,0.5-0.9,0.6s-0.7,0.2-1.2,0.2c-0.4,0-0.8-0.1-1.1-0.2c-0.3-0.1-0.6-0.4-0.8-0.6v2.9H65.9L65.9,140.3z M68.5,132.8
					c-0.4,0-0.8,0.1-1.1,0.3c-0.3,0.2-0.6,0.5-0.9,0.8v3.1c0.2,0.3,0.5,0.6,0.8,0.7c0.3,0.1,0.6,0.2,1,0.2c0.4,0,0.7-0.1,1-0.2
					s0.5-0.3,0.7-0.5c0.2-0.2,0.3-0.5,0.4-0.8c0.1-0.3,0.1-0.7,0.1-1.1c0-0.9-0.2-1.5-0.5-1.9C69.7,133,69.2,132.8,68.5,132.8z"/>
				<path class="st4" d="M75.6,132.4v3.7c0,0.5,0.1,1,0.4,1.3c0.3,0.3,0.7,0.5,1.2,0.5c0.4,0,0.8-0.1,1.2-0.3c0.4-0.2,0.7-0.5,1-0.8
					v-4.4H80v5.8h-0.3c-0.1,0-0.2-0.1-0.2-0.2l-0.1-0.9c-0.3,0.3-0.6,0.6-1,0.8s-0.8,0.3-1.3,0.3c-0.4,0-0.7-0.1-0.9-0.2
					c-0.3-0.1-0.5-0.2-0.7-0.4c-0.2-0.2-0.3-0.4-0.4-0.7s-0.1-0.6-0.1-0.9v-3.7L75.6,132.4L75.6,132.4z"/>
				<path class="st4" d="M88,133.2c0,0.1-0.1,0.1-0.1,0.1c0,0-0.1,0-0.2-0.1c-0.1,0-0.2-0.1-0.3-0.2c-0.1-0.1-0.3-0.1-0.4-0.2
					s-0.4-0.1-0.6-0.1c-0.2,0-0.4,0-0.6,0.1c-0.2,0.1-0.3,0.1-0.5,0.2c-0.1,0.1-0.2,0.2-0.3,0.4c-0.1,0.1-0.1,0.3-0.1,0.4
					c0,0.2,0.1,0.3,0.2,0.5c0.1,0.1,0.2,0.2,0.4,0.3c0.2,0.1,0.4,0.2,0.6,0.2c0.2,0.1,0.4,0.1,0.6,0.2c0.2,0.1,0.4,0.1,0.6,0.2
					c0.2,0.1,0.4,0.2,0.6,0.3c0.2,0.1,0.3,0.3,0.4,0.4c0.1,0.2,0.2,0.4,0.2,0.6c0,0.3-0.1,0.5-0.1,0.7c-0.1,0.2-0.2,0.4-0.4,0.6
					c-0.2,0.2-0.4,0.3-0.7,0.4c-0.3,0.1-0.6,0.1-0.9,0.1c-0.4,0-0.8-0.1-1.2-0.2c-0.3-0.1-0.6-0.3-0.9-0.5l0.1-0.2
					c0,0,0-0.1,0.1-0.1c0,0,0.1,0,0.1,0c0.1,0,0.1,0,0.2,0.1c0.1,0.1,0.2,0.1,0.3,0.2c0.1,0.1,0.3,0.1,0.5,0.2
					c0.2,0.1,0.4,0.1,0.7,0.1c0.3,0,0.5,0,0.7-0.1c0.2-0.1,0.4-0.2,0.5-0.3c0.1-0.1,0.2-0.3,0.3-0.4c0.1-0.2,0.1-0.3,0.1-0.5
					c0-0.2-0.1-0.4-0.2-0.5c-0.1-0.1-0.2-0.2-0.4-0.3c-0.2-0.1-0.4-0.2-0.6-0.2c-0.2-0.1-0.4-0.1-0.6-0.2c-0.2-0.1-0.4-0.1-0.6-0.2
					c-0.2-0.1-0.4-0.2-0.6-0.3c-0.2-0.1-0.3-0.3-0.4-0.4c-0.1-0.2-0.2-0.4-0.2-0.6c0-0.2,0-0.4,0.1-0.6c0.1-0.2,0.2-0.4,0.4-0.5
					c0.2-0.1,0.4-0.3,0.7-0.3c0.3-0.1,0.5-0.1,0.9-0.1c0.4,0,0.7,0.1,1,0.2c0.3,0.1,0.6,0.3,0.8,0.5L88,133.2z"/>
				<path class="st4" d="M92.1,137.8c0-0.1,0-0.1,0-0.2c0-0.1,0.1-0.1,0.1-0.2c0.1,0,0.1-0.1,0.2-0.1c0.1,0,0.1,0,0.2,0
					c0.1,0,0.2,0,0.2,0c0.1,0,0.1,0.1,0.2,0.1c0.1,0,0.1,0.1,0.1,0.2c0,0.1,0,0.1,0,0.2c0,0.1,0,0.2,0,0.2c0,0.1-0.1,0.1-0.1,0.2
					c-0.1,0-0.1,0.1-0.2,0.1c-0.1,0-0.1,0-0.2,0c-0.2,0-0.3-0.1-0.4-0.2C92.1,138.1,92.1,138,92.1,137.8z"/>
				<path class="st4" d="M97.4,138.3v-5.8h0.3c0.1,0,0.2,0,0.2,0.1l0.1,0.9c0.3-0.3,0.6-0.6,1-0.8c0.4-0.2,0.8-0.3,1.3-0.3
					c0.3,0,0.7,0.1,0.9,0.2c0.3,0.1,0.5,0.2,0.7,0.4c0.2,0.2,0.3,0.4,0.4,0.7c0.1,0.3,0.1,0.6,0.1,0.9v3.7h-0.6v-3.7
					c0-0.5-0.1-1-0.4-1.3c-0.3-0.3-0.7-0.5-1.2-0.5c-0.4,0-0.8,0.1-1.2,0.3c-0.4,0.2-0.7,0.5-1,0.8v4.4L97.4,138.3L97.4,138.3z"/>
				<path class="st4" d="M109.1,132.3c0.4,0,0.7,0.1,1,0.2c0.3,0.1,0.6,0.3,0.8,0.5c0.2,0.2,0.4,0.5,0.5,0.8
					c0.1,0.3,0.2,0.7,0.2,1.1c0,0.1,0,0.1,0,0.2c0,0-0.1,0-0.1,0h-4.6v0.1c0,0.4,0.1,0.8,0.2,1.2c0.1,0.3,0.3,0.6,0.5,0.8
					c0.2,0.2,0.4,0.4,0.7,0.5c0.3,0.1,0.6,0.2,1,0.2c0.3,0,0.6,0,0.8-0.1c0.2-0.1,0.4-0.1,0.6-0.2c0.2-0.1,0.3-0.2,0.4-0.2
					c0.1-0.1,0.2-0.1,0.2-0.1c0.1,0,0.1,0,0.1,0.1l0.2,0.2c-0.1,0.1-0.2,0.2-0.4,0.3c-0.2,0.1-0.4,0.2-0.6,0.3
					c-0.2,0.1-0.4,0.1-0.7,0.2c-0.2,0-0.5,0.1-0.7,0.1c-0.4,0-0.8-0.1-1.2-0.2c-0.4-0.1-0.7-0.3-0.9-0.6c-0.3-0.3-0.5-0.6-0.6-1
					c-0.1-0.4-0.2-0.8-0.2-1.3c0-0.4,0.1-0.8,0.2-1.2c0.1-0.4,0.3-0.7,0.6-0.9c0.2-0.3,0.5-0.5,0.9-0.6
					C108.2,132.4,108.7,132.3,109.1,132.3z M109.1,132.8c-0.3,0-0.6,0-0.9,0.1c-0.3,0.1-0.5,0.2-0.7,0.4c-0.2,0.2-0.3,0.4-0.5,0.6
					c-0.1,0.2-0.2,0.5-0.2,0.8h4.2c0-0.3,0-0.6-0.1-0.8c-0.1-0.2-0.2-0.5-0.4-0.6c-0.2-0.2-0.4-0.3-0.6-0.4
					C109.7,132.8,109.4,132.8,109.1,132.8z"/>
				<path class="st4" d="M117.4,138.4c-0.4,0-0.8-0.1-1-0.3c-0.2-0.2-0.4-0.6-0.4-1v-4h-0.9c0,0-0.1,0-0.1,0c0,0,0-0.1,0-0.1v-0.2
					l1.1-0.1l0.2-2.1c0,0,0-0.1,0-0.1c0,0,0.1,0,0.1,0h0.3v2.2h2v0.4h-2v4c0,0.2,0,0.3,0.1,0.4c0,0.1,0.1,0.2,0.2,0.3
					c0.1,0.1,0.2,0.1,0.3,0.2c0.1,0,0.2,0.1,0.3,0.1c0.2,0,0.3,0,0.4-0.1c0.1,0,0.2-0.1,0.3-0.1c0.1,0,0.1-0.1,0.2-0.1
					c0.1,0,0.1-0.1,0.1-0.1c0,0,0.1,0,0.1,0.1l0.2,0.2c-0.2,0.2-0.4,0.3-0.6,0.4C117.9,138.3,117.7,138.4,117.4,138.4z"/>
			</g>
		</g>
	</g>
</g>
</svg>
